# xmcd
#
# Track frame offsets: 
#        150
#        23859
#        72088
#        105475
#        121858
#        136580
#        176674
#
# Disc length: 2739 seconds
#
# Revision: 3
# Processed by: cddbd v1.5.2PL0 Copyright (c) Steve Scherf et al.
# Submitted via: ExactAudioCopy v1.1
#
DISCID=510ab107
DTITLE=Douglas Adams - Per Anhalter durch die Galaxis CD4
DYEAR=2005
DGENRE=Hörspiel
TTITLE0=Der Kongress der Mäuse 1
TTITLE1=Der Kongress der Mäuse 2
TTITLE2=Der Kongress der Mäuse 3
TTITLE3=Der Kongress der Mäuse 4
TTITLE4=Der Kongress der Mäuse 5
TTITLE5=Der Kongress der Mäuse 6
TTITLE6=Der Kongress der Mäuse 7
EXTD=YEAR: 2005
EXTT0=
EXTT1=
EXTT2=
EXTT3=
EXTT4=
EXTT5=
EXTT6=
PLAYORDER=
